<svg width="0" height="0" fill="none" style="visibility: hidden; position: absolute;" aria-hidden="true">
    <symbol id="book" xmlns="http://www.w3.org/2000/svg" width="24" height="24">
        <path d="M6 22h15v-2H6.012C5.55 19.988 5 19.805 5 19s.55-.988 1.012-1H21V4c0-1.103-.897-2-2-2H6c-1.206 0-3 .799-3 3v14c0 2.201 1.794 3 3 3zM5 8V5c0-.805.55-.988 1-1h13v12H5V8z"/>
        <path d="M8 6h9v2H8z"/>
    </symbol>
    <symbol id="cycling" xmlns="http://www.w3.org/2000/svg" width="24" height="24">
        <path d="M11 15.414V20h2v-4.586c0-.526-.214-1.042-.586-1.414l-2-2L13 9.414l2 2c.372.372.888.586 1.414.586H20v-2h-3.586l-3.707-3.707a.999.999 0 00-1.414 0L8 9.586c-.378.378-.586.88-.586 1.414s.208 1.036.586 1.414l3 3z"/>
        <circle cx="16" cy="5" r="2"/>
        <path d="M18 14c-2.206 0-4 1.794-4 4s1.794 4 4 4 4-1.794 4-4-1.794-4-4-4zm0 6c-1.103 0-2-.897-2-2s.897-2 2-2 2 .897 2 2-.897 2-2 2zM6 22c2.206 0 4-1.794 4-4s-1.794-4-4-4-4 1.794-4 4 1.794 4 4 4zm0-6c1.103 0 2 .897 2 2s-.897 2-2 2-2-.897-2-2 .897-2 2-2z"/>
    </symbol>
    <symbol id="download" xmlns="http://www.w3.org/2000/svg" width="24" height="24">
        <path d="M12 16l4-5h-3V4h-2v7H8z"/>
        <path d="M20 18H4v-7H2v7c0 1.103.897 2 2 2h16c1.103 0 2-.897 2-2v-7h-2v7z"/>
    </symbol>
    <symbol id="dumbbell" xmlns="http://www.w3.org/2000/svg" width="24" height="24">
        <path d="M6 5v14h3v-6h6v6h3V5h-3v6H9V5zM3 15a1 1 0 001 1h1V8H4a1 1 0 00-1 1v2H2v2h1v2zm18-6a1 1 0 00-1-1h-1v8h1a1 1 0 001-1v-2h1v-2h-1V9z"/>
    </symbol>
    <symbol id="envelope" xmlns="http://www.w3.org/2000/svg" width="24" height="24">
        <path d="M20 4H4c-1.103 0-2 .897-2 2v12c0 1.103.897 2 2 2h16c1.103 0 2-.897 2-2V6c0-1.103-.897-2-2-2zm0 2v.511l-8 6.223-8-6.222V6h16zM4 18V9.044l7.386 5.745a.994.994 0 001.228 0L20 9.044 20.002 18H4z"/>
    </symbol>
    <symbol id="facebook" xmlns="http://www.w3.org/2000/svg" width="24" height="24">
        <path d="M20 3H4a1 1 0 00-1 1v16a1 1 0 001 1h8.615v-6.96h-2.338v-2.725h2.338v-2c0-2.325 1.42-3.592 3.5-3.592.699-.002 1.399.034 2.095.107v2.42h-1.435c-1.128 0-1.348.538-1.348 1.325v1.735h2.697l-.35 2.725h-2.348V21H20a1 1 0 001-1V4a1 1 0 00-1-1z"/>
    </symbol>
    <symbol id="headphone" xmlns="http://www.w3.org/2000/svg" width="24" height="24">
        <path d="M20 12v-1.707c0-4.442-3.479-8.161-7.755-8.29-2.204-.051-4.251.736-5.816 2.256A7.933 7.933 0 004 10v2c-1.103 0-2 .897-2 2v4c0 1.103.897 2 2 2h2V10a5.95 5.95 0 011.821-4.306 5.977 5.977 0 014.363-1.691C15.392 4.099 18 6.921 18 10.293V20h2c1.103 0 2-.897 2-2v-4c0-1.103-.897-2-2-2z"/>
        <path d="M7 12h2v8H7zm8 0h2v8h-2z"/>
    </symbol>
    <symbol id="instagram" xmlns="http://www.w3.org/2000/svg" width="24" height="24">
        <path d="M20.947 8.305a6.53 6.53 0 00-.419-2.216 4.61 4.61 0 00-2.633-2.633 6.606 6.606 0 00-2.186-.42c-.962-.043-1.267-.055-3.709-.055s-2.755 0-3.71.055a6.606 6.606 0 00-2.185.42 4.607 4.607 0 00-2.633 2.633 6.554 6.554 0 00-.419 2.185c-.043.963-.056 1.268-.056 3.71s0 2.754.056 3.71c.015.748.156 1.486.419 2.187a4.61 4.61 0 002.634 2.632 6.584 6.584 0 002.185.45c.963.043 1.268.056 3.71.056s2.755 0 3.71-.056a6.59 6.59 0 002.186-.419 4.615 4.615 0 002.633-2.633c.263-.7.404-1.438.419-2.187.043-.962.056-1.267.056-3.71-.002-2.442-.002-2.752-.058-3.709zm-8.953 8.297c-2.554 0-4.623-2.069-4.623-4.623s2.069-4.623 4.623-4.623a4.623 4.623 0 010 9.246zm4.807-8.339a1.077 1.077 0 01-1.078-1.078 1.077 1.077 0 112.155 0c0 .596-.482 1.078-1.077 1.078z"/>
        <circle cx="11.994" cy="11.979" r="3.003"/>
    </symbol>
    <symbol id="linkedin" xmlns="http://www.w3.org/2000/svg" width="24" height="24">
        <path d="M20 3H4a1 1 0 00-1 1v16a1 1 0 001 1h16a1 1 0 001-1V4a1 1 0 00-1-1zM8.339 18.337H5.667v-8.59h2.672v8.59zM7.003 8.574a1.548 1.548 0 110-3.096 1.548 1.548 0 010 3.096zm11.335 9.763h-2.669V14.16c0-.996-.018-2.277-1.388-2.277-1.39 0-1.601 1.086-1.601 2.207v4.248h-2.667v-8.59h2.56v1.174h.037c.355-.675 1.227-1.387 2.524-1.387 2.704 0 3.203 1.778 3.203 4.092v4.71z"/>
    </symbol>
    <symbol id="map" xmlns="http://www.w3.org/2000/svg" width="24" height="24">
        <path d="M12 14c2.206 0 4-1.794 4-4s-1.794-4-4-4-4 1.794-4 4 1.794 4 4 4zm0-6c1.103 0 2 .897 2 2s-.897 2-2 2-2-.897-2-2 .897-2 2-2z"/>
        <path d="M11.42 21.814a.998.998 0 001.16 0C12.884 21.599 20.029 16.44 20 10c0-4.411-3.589-8-8-8S4 5.589 4 9.995c-.029 6.445 7.116 11.604 7.42 11.819zM12 4c3.309 0 6 2.691 6 6.005.021 4.438-4.388 8.423-6 9.73-1.611-1.308-6.021-5.294-6-9.735 0-3.309 2.691-6 6-6z"/>
    </symbol>
    <symbol id="moon" xmlns="http://www.w3.org/2000/svg" width="24" height="24">
        <path d="M20.742 13.045a8.088 8.088 0 01-2.077.271c-2.135 0-4.14-.83-5.646-2.336a8.025 8.025 0 01-2.064-7.723A1 1 0 009.73 2.034a10.014 10.014 0 00-4.489 2.582c-3.898 3.898-3.898 10.243 0 14.143a9.937 9.937 0 007.072 2.93 9.93 9.93 0 007.07-2.929 10.007 10.007 0 002.583-4.491 1.001 1.001 0 00-1.224-1.224zm-2.772 4.301a7.947 7.947 0 01-5.656 2.343 7.953 7.953 0 01-5.658-2.344c-3.118-3.119-3.118-8.195 0-11.314a7.923 7.923 0 012.06-1.483 10.027 10.027 0 002.89 7.848 9.972 9.972 0 007.848 2.891 8.036 8.036 0 01-1.484 2.059z"/>
    </symbol>
    <symbol id="phone" xmlns="http://www.w3.org/2000/svg" width="24" height="24">
        <path d="M17.707 12.293a.999.999 0 00-1.414 0l-1.594 1.594c-.739-.22-2.118-.72-2.992-1.594s-1.374-2.253-1.594-2.992l1.594-1.594a.999.999 0 000-1.414l-4-4a.999.999 0 00-1.414 0L3.581 5.005c-.38.38-.594.902-.586 1.435.023 1.424.4 6.37 4.298 10.268s8.844 4.274 10.269 4.298h.028c.528 0 1.027-.208 1.405-.586l2.712-2.712a.999.999 0 000-1.414l-4-4.001zm-.127 6.712c-1.248-.021-5.518-.356-8.873-3.712-3.366-3.366-3.692-7.651-3.712-8.874L7 4.414 9.586 7 8.293 8.293a1 1 0 00-.272.912c.024.115.611 2.842 2.271 4.502s4.387 2.247 4.502 2.271a.991.991 0 00.912-.271L17 14.414 19.586 17l-2.006 2.005z"/>
    </symbol>
    <symbol id="sun" xmlns="http://www.w3.org/2000/svg" width="24" height="24">
        <path d="M6.993 12c0 2.761 2.246 5.007 5.007 5.007s5.007-2.246 5.007-5.007S14.761 6.993 12 6.993 6.993 9.239 6.993 12zM12 8.993c1.658 0 3.007 1.349 3.007 3.007S13.658 15.007 12 15.007 8.993 13.658 8.993 12 10.342 8.993 12 8.993zM10.998 19h2v3h-2zm0-17h2v3h-2zm-9 9h3v2h-3zm17 0h3v2h-3zM4.219 18.363l2.12-2.122 1.415 1.414-2.12 2.122zM16.24 6.344l2.122-2.122 1.414 1.414-2.122 2.122zM6.342 7.759L4.22 5.637l1.415-1.414 2.12 2.122zm13.434 10.605l-1.414 1.414-2.122-2.122 1.414-1.414z"/>
    </symbol>
    <symbol id="telegram" xmlns="http://www.w3.org/2000/svg" width="24" height="24">
        <path d="M20.665 3.717l-17.73 6.837c-1.21.486-1.203 1.161-.222 1.462l4.552 1.42 10.532-6.645c.498-.303.953-.14.579.192l-8.533 7.701h-.002l.002.001-.314 4.692c.46 0 .663-.211.921-.46l2.211-2.15 4.599 3.397c.848.467 1.457.227 1.668-.785l3.019-14.228c.309-1.239-.473-1.8-1.282-1.434z"/>
    </symbol>
    <symbol id="twitter" xmlns="http://www.w3.org/2000/svg" width="24" height="24">
        <path d="M19.633 7.997c.013.175.013.349.013.523 0 5.325-4.053 11.461-11.46 11.461-2.282 0-4.402-.661-6.186-1.809.324.037.636.05.973.05a8.07 8.07 0 005.001-1.721 4.036 4.036 0 01-3.767-2.793c.249.037.499.062.761.062.361 0 .724-.05 1.061-.137a4.027 4.027 0 01-3.23-3.953v-.05c.537.299 1.16.486 1.82.511a4.022 4.022 0 01-1.796-3.354c0-.748.199-1.434.548-2.032a11.457 11.457 0 008.306 4.215c-.062-.3-.1-.611-.1-.923a4.026 4.026 0 014.028-4.028c1.16 0 2.207.486 2.943 1.272a7.957 7.957 0 002.556-.973 4.02 4.02 0 01-1.771 2.22 8.073 8.073 0 002.319-.624 8.645 8.645 0 01-2.019 2.083z"/>
    </symbol>
    <symbol id="viber" xmlns="http://www.w3.org/2000/svg" width="24" height="24">
        <path d="M20 10.999h2C22 5.869 18.127 2 12.99 2v2C17.052 4 20 6.943 20 10.999z"/>
        <path d="M13 8c2.103 0 3 .897 3 3h2c0-3.225-1.775-5-5-5v2zm3.422 5.443a1.001 1.001 0 00-1.391.043l-2.393 2.461c-.576-.11-1.734-.471-2.926-1.66-1.192-1.193-1.553-2.354-1.66-2.926l2.459-2.394a1 1 0 00.043-1.391L6.859 3.513a1 1 0 00-1.391-.087l-2.17 1.861a1 1 0 00-.29.649c-.015.25-.301 6.172 4.291 10.766C11.305 20.707 16.323 21 17.705 21c.202 0 .326-.006.359-.008a.992.992 0 00.648-.291l1.86-2.171a1 1 0 00-.086-1.391l-4.064-3.696z"/>
    </symbol>
</svg>